<?xml version="1.0" encoding="UTF-8" standalone="no"?>
<!DOCTYPE svg PUBLIC "-//W3C//DTD SVG 1.1//EN"
 "http://www.w3.org/Graphics/SVG/1.1/DTD/svg11.dtd">
<!-- Generated by graphviz version 9.0.0 (20230911.1827)
 -->
<!-- Title: G Pages: 1 -->
<svg width="2262pt" height="1149pt"
 viewBox="0.00 0.00 2262.48 1149.00" xmlns="http://www.w3.org/2000/svg" xmlns:xlink="http://www.w3.org/1999/xlink">
<g id="graph0" class="graph" transform="scale(1 1) rotate(0) translate(4 1145)">
<title>G</title>
<polygon fill="white" stroke="none" points="-4,4 -4,-1145 2258.48,-1145 2258.48,4 -4,4"/>
<!-- broadcaster -->
<g id="node1" class="node">
<title>broadcaster</title>
<polygon fill="none" stroke="black" points="1145.94,-1141 1067.69,-1141 1067.69,-1105 1145.94,-1105 1145.94,-1141"/>
<text text-anchor="middle" x="1106.82" y="-1117.95" font-family="Times,serif" font-size="14.00">broadcaster</text>
</g>
<!-- mn -->
<g id="node2" class="node">
<title>mn</title>
<polygon fill="none" stroke="black" points="326.82,-1020 373.22,-1056.75 280.41,-1056.75 326.82,-1020"/>
<text text-anchor="middle" x="326.82" y="-1039.45" font-family="Times,serif" font-size="14.00">mn</text>
</g>
<!-- broadcaster&#45;&gt;mn -->
<g id="edge1" class="edge">
<title>broadcaster&#45;&gt;mn</title>
<path fill="none" stroke="black" d="M1067.33,-1118.13C936.76,-1105.32 519.03,-1064.35 375.66,-1050.29"/>
<polygon fill="black" stroke="black" points="376.03,-1046.81 365.74,-1049.32 375.35,-1053.78 376.03,-1046.81"/>
</g>
<!-- jn -->
<g id="node3" class="node">
<title>jn</title>
<polygon fill="none" stroke="black" points="816.82,-1020 852.99,-1056.75 780.65,-1056.75 816.82,-1020"/>
<text text-anchor="middle" x="816.82" y="-1039.45" font-family="Times,serif" font-size="14.00">jn</text>
</g>
<!-- broadcaster&#45;&gt;jn -->
<g id="edge2" class="edge">
<title>broadcaster&#45;&gt;jn</title>
<path fill="none" stroke="black" d="M1067.41,-1111.6C1014.09,-1097.54 919.17,-1072.5 862.71,-1057.6"/>
<polygon fill="black" stroke="black" points="863.63,-1054.23 853.07,-1055.06 861.85,-1061 863.63,-1054.23"/>
</g>
<!-- hd -->
<g id="node4" class="node">
<title>hd</title>
<polygon fill="none" stroke="black" points="1339.82,-1020 1380.08,-1056.75 1299.56,-1056.75 1339.82,-1020"/>
<text text-anchor="middle" x="1339.82" y="-1039.45" font-family="Times,serif" font-size="14.00">hd</text>
</g>
<!-- broadcaster&#45;&gt;hd -->
<g id="edge3" class="edge">
<title>broadcaster&#45;&gt;hd</title>
<path fill="none" stroke="black" d="M1146.34,-1109.02C1187.07,-1095.65 1250.52,-1074.82 1293.56,-1060.69"/>
<polygon fill="black" stroke="black" points="1294.46,-1064.08 1302.87,-1057.63 1292.27,-1057.43 1294.46,-1064.08"/>
</g>
<!-- lq -->
<g id="node5" class="node">
<title>lq</title>
<polygon fill="none" stroke="black" points="1975.82,-1020 2011.99,-1056.75 1939.65,-1056.75 1975.82,-1020"/>
<text text-anchor="middle" x="1975.82" y="-1039.45" font-family="Times,serif" font-size="14.00">lq</text>
</g>
<!-- broadcaster&#45;&gt;lq -->
<g id="edge4" class="edge">
<title>broadcaster&#45;&gt;lq</title>
<path fill="none" stroke="black" d="M1146.41,-1118.51C1291.26,-1105.76 1791.38,-1061.74 1936.22,-1048.99"/>
<polygon fill="black" stroke="black" points="1936.42,-1052.48 1946.07,-1048.12 1935.8,-1045.51 1936.42,-1052.48"/>
</g>
<!-- tc -->
<g id="node22" class="node">
<title>tc</title>
<polygon fill="none" stroke="black" points="299.82,-953.94 326.82,-941.5 353.82,-953.94 353.79,-974.06 299.84,-974.06 299.82,-953.94"/>
<text text-anchor="middle" x="326.82" y="-954.45" font-family="Times,serif" font-size="14.00">tc</text>
</g>
<!-- mn&#45;&gt;tc -->
<g id="edge53" class="edge">
<title>mn&#45;&gt;tc</title>
<path fill="none" stroke="black" d="M321.02,-1024.25C319.94,-1012.83 319.78,-998.21 320.54,-985.86"/>
<polygon fill="black" stroke="black" points="324.02,-986.25 321.47,-975.97 317.05,-985.6 324.02,-986.25"/>
</g>
<!-- xs -->
<g id="node50" class="node">
<title>xs</title>
<polygon fill="none" stroke="black" points="69.82,-850 108.03,-886.75 31.6,-886.75 69.82,-850"/>
<text text-anchor="middle" x="69.82" y="-869.45" font-family="Times,serif" font-size="14.00">xs</text>
</g>
<!-- mn&#45;&gt;xs -->
<g id="edge54" class="edge">
<title>mn&#45;&gt;xs</title>
<path fill="none" stroke="black" d="M310.35,-1032.74C267.16,-1004.5 150.27,-928.09 96.97,-893.25"/>
<polygon fill="black" stroke="black" points="99.05,-890.43 88.76,-887.88 95.22,-896.29 99.05,-890.43"/>
</g>
<!-- ks -->
<g id="node15" class="node">
<title>ks</title>
<polygon fill="none" stroke="black" points="751.82,-868.94 778.82,-856.5 805.82,-868.94 805.79,-889.06 751.84,-889.06 751.82,-868.94"/>
<text text-anchor="middle" x="778.82" y="-869.45" font-family="Times,serif" font-size="14.00">ks</text>
</g>
<!-- jn&#45;&gt;ks -->
<g id="edge84" class="edge">
<title>jn&#45;&gt;ks</title>
<path fill="none" stroke="black" d="M809,-1027.39C799.21,-998.01 784.81,-935.51 779.51,-900.53"/>
<polygon fill="black" stroke="black" points="783.01,-900.36 778.23,-890.91 776.07,-901.28 783.01,-900.36"/>
</g>
<!-- xk -->
<g id="node57" class="node">
<title>xk</title>
<polygon fill="none" stroke="black" points="855.82,-935 896.08,-971.75 815.56,-971.75 855.82,-935"/>
<text text-anchor="middle" x="855.82" y="-954.45" font-family="Times,serif" font-size="14.00">xk</text>
</g>
<!-- jn&#45;&gt;xk -->
<g id="edge85" class="edge">
<title>jn&#45;&gt;xk</title>
<path fill="none" stroke="black" d="M824.34,-1027.5C830.35,-1014.71 838.83,-996.65 845.48,-982.5"/>
<polygon fill="black" stroke="black" points="848.6,-984.08 849.69,-973.54 842.27,-981.1 848.6,-984.08"/>
</g>
<!-- dn -->
<g id="node17" class="node">
<title>dn</title>
<polygon fill="none" stroke="black" points="1312.82,-953.94 1339.82,-941.5 1366.82,-953.94 1366.79,-974.06 1312.84,-974.06 1312.82,-953.94"/>
<text text-anchor="middle" x="1339.82" y="-954.45" font-family="Times,serif" font-size="14.00">dn</text>
</g>
<!-- hd&#45;&gt;dn -->
<g id="edge34" class="edge">
<title>hd&#45;&gt;dn</title>
<path fill="none" stroke="black" d="M1334.06,-1024.67C1332.93,-1013.07 1332.77,-998.06 1333.57,-985.48"/>
<polygon fill="black" stroke="black" points="1337.02,-986.14 1334.49,-975.85 1330.05,-985.47 1337.02,-986.14"/>
</g>
<!-- mm -->
<g id="node36" class="node">
<title>mm</title>
<polygon fill="none" stroke="black" points="1651.82,-850 1704.36,-886.75 1599.27,-886.75 1651.82,-850"/>
<text text-anchor="middle" x="1651.82" y="-869.45" font-family="Times,serif" font-size="14.00">mm</text>
</g>
<!-- hd&#45;&gt;mm -->
<g id="edge35" class="edge">
<title>hd&#45;&gt;mm</title>
<path fill="none" stroke="black" d="M1356.15,-1034.7C1405.66,-1008.04 1554.67,-927.81 1620.25,-892.5"/>
<polygon fill="black" stroke="black" points="1621.56,-895.77 1628.7,-887.95 1618.24,-889.61 1621.56,-895.77"/>
</g>
<!-- ms -->
<g id="node8" class="node">
<title>ms</title>
<polygon fill="none" stroke="black" points="1948.4,-953.94 1975.82,-941.5 2003.23,-953.94 2003.21,-974.06 1948.43,-974.06 1948.4,-953.94"/>
<text text-anchor="middle" x="1975.82" y="-954.45" font-family="Times,serif" font-size="14.00">ms</text>
</g>
<!-- lq&#45;&gt;ms -->
<g id="edge61" class="edge">
<title>lq&#45;&gt;ms</title>
<path fill="none" stroke="black" d="M1970.14,-1025.49C1968.94,-1013.86 1968.75,-998.55 1969.55,-985.71"/>
<polygon fill="black" stroke="black" points="1973.03,-986.16 1970.49,-975.87 1966.06,-985.5 1973.03,-986.16"/>
</g>
<!-- fm -->
<g id="node37" class="node">
<title>fm</title>
<polygon fill="none" stroke="black" points="2179.82,-850 2223.15,-886.75 2136.48,-886.75 2179.82,-850"/>
<text text-anchor="middle" x="2179.82" y="-869.45" font-family="Times,serif" font-size="14.00">fm</text>
</g>
<!-- lq&#45;&gt;fm -->
<g id="edge62" class="edge">
<title>lq&#45;&gt;fm</title>
<path fill="none" stroke="black" d="M1988.89,-1032.74C2022.82,-1004.79 2114.03,-929.68 2156.93,-894.35"/>
<polygon fill="black" stroke="black" points="2159.12,-897.08 2164.62,-888.02 2154.67,-891.67 2159.12,-897.08"/>
</g>
<!-- nz -->
<g id="node6" class="node">
<title>nz</title>
<polygon fill="none" stroke="black" points="1909.82,-255 1949.06,-291.75 1870.58,-291.75 1909.82,-255"/>
<text text-anchor="middle" x="1909.82" y="-274.45" font-family="Times,serif" font-size="14.00">nz</text>
</g>
<!-- jm -->
<g id="node7" class="node">
<title>jm</title>
<polygon fill="none" stroke="black" points="1891.82,-170 1934.13,-206.75 1849.51,-206.75 1891.82,-170"/>
<text text-anchor="middle" x="1891.82" y="-189.45" font-family="Times,serif" font-size="14.00">jm</text>
</g>
<!-- nz&#45;&gt;jm -->
<g id="edge5" class="edge">
<title>nz&#45;&gt;jm</title>
<path fill="none" stroke="black" d="M1905.46,-258.41C1902.81,-246.19 1899.42,-230.57 1896.69,-217.95"/>
<polygon fill="black" stroke="black" points="1900.17,-217.49 1894.63,-208.45 1893.33,-218.97 1900.17,-217.49"/>
</g>
<!-- nz&#45;&gt;ms -->
<g id="edge6" class="edge">
<title>nz&#45;&gt;ms</title>
<path fill="none" stroke="black" d="M1906.38,-292.19C1898.7,-319.37 1880.82,-389.01 1880.82,-448.5 1880.82,-790.5 1880.82,-790.5 1880.82,-790.5 1880.82,-850.62 1927.49,-909 1955.41,-938.54"/>
<polygon fill="black" stroke="black" points="1952.86,-940.94 1962.34,-945.67 1957.88,-936.06 1952.86,-940.94"/>
</g>
<!-- jm&#45;&gt;ms -->
<g id="edge95" class="edge">
<title>jm&#45;&gt;ms</title>
<path fill="none" stroke="black" d="M1884.78,-206.91C1877.91,-218.58 1867.64,-237.43 1861.82,-255 1846.41,-301.47 1842.82,-314.54 1842.82,-363.5 1842.82,-790.5 1842.82,-790.5 1842.82,-790.5 1842.82,-843.05 1856.48,-858.37 1889.82,-899 1905.49,-918.1 1928.79,-933.7 1947.19,-944.13"/>
<polygon fill="black" stroke="black" points="1945.31,-947.09 1955.76,-948.8 1948.66,-940.94 1945.31,-947.09"/>
</g>
<!-- cp -->
<g id="node58" class="node">
<title>cp</title>
<polygon fill="none" stroke="black" points="1891.82,-85 1931.06,-121.75 1852.58,-121.75 1891.82,-85"/>
<text text-anchor="middle" x="1891.82" y="-104.45" font-family="Times,serif" font-size="14.00">cp</text>
</g>
<!-- jm&#45;&gt;cp -->
<g id="edge96" class="edge">
<title>jm&#45;&gt;cp</title>
<path fill="none" stroke="black" d="M1891.82,-169.49C1891.82,-158.22 1891.82,-144.84 1891.82,-133.68"/>
<polygon fill="black" stroke="black" points="1895.32,-133.76 1891.82,-123.76 1888.32,-133.76 1895.32,-133.76"/>
</g>
<!-- ms&#45;&gt;lq -->
<g id="edge36" class="edge">
<title>ms&#45;&gt;lq</title>
<path fill="none" stroke="black" d="M1981.01,-974.36C1982.48,-985.21 1982.91,-1000.68 1982.3,-1014.23"/>
<polygon fill="black" stroke="black" points="1978.83,-1013.76 1981.6,-1023.98 1985.81,-1014.26 1978.83,-1013.76"/>
</g>
<!-- ms&#45;&gt;fm -->
<g id="edge37" class="edge">
<title>ms&#45;&gt;fm</title>
<path fill="none" stroke="black" d="M1996.29,-950.26C2024.7,-938.82 2077.7,-917.43 2122.82,-899 2128.85,-896.54 2135.23,-893.92 2141.46,-891.35"/>
<polygon fill="black" stroke="black" points="2142.4,-894.75 2150.31,-887.71 2139.73,-888.28 2142.4,-894.75"/>
</g>
<!-- sz -->
<g id="node38" class="node">
<title>sz</title>
<polygon fill="none" stroke="black" points="1722.82,-868.94 1749.82,-856.5 1776.82,-868.94 1776.79,-889.06 1722.84,-889.06 1722.82,-868.94"/>
<text text-anchor="middle" x="1749.82" y="-869.45" font-family="Times,serif" font-size="14.00">sz</text>
</g>
<!-- ms&#45;&gt;sz -->
<g id="edge38" class="edge">
<title>ms&#45;&gt;sz</title>
<path fill="none" stroke="black" d="M1950.97,-952.29C1914.88,-942.87 1846.22,-923.46 1790.82,-899 1788.03,-897.77 1785.19,-896.4 1782.36,-894.96"/>
<polygon fill="black" stroke="black" points="1784.15,-891.95 1773.69,-890.27 1780.82,-898.1 1784.15,-891.95"/>
</g>
<!-- cs -->
<g id="node9" class="node">
<title>cs</title>
<polygon fill="none" stroke="black" points="919.82,-765 957.01,-801.75 882.63,-801.75 919.82,-765"/>
<text text-anchor="middle" x="919.82" y="-784.45" font-family="Times,serif" font-size="14.00">cs</text>
</g>
<!-- gb -->
<g id="node10" class="node">
<title>gb</title>
<polygon fill="none" stroke="black" points="793.82,-680 834.08,-716.75 753.56,-716.75 793.82,-680"/>
<text text-anchor="middle" x="793.82" y="-699.45" font-family="Times,serif" font-size="14.00">gb</text>
</g>
<!-- cs&#45;&gt;gb -->
<g id="edge7" class="edge">
<title>cs&#45;&gt;gb</title>
<path fill="none" stroke="black" d="M905.36,-778.98C884.82,-765.45 846.8,-740.4 820.92,-723.35"/>
<polygon fill="black" stroke="black" points="822.86,-720.44 812.58,-717.86 819.01,-726.29 822.86,-720.44"/>
</g>
<!-- gb&#45;&gt;ks -->
<g id="edge24" class="edge">
<title>gb&#45;&gt;ks</title>
<path fill="none" stroke="black" d="M792.78,-717.07C790.44,-743.37 784.64,-808.25 781.3,-845.68"/>
<polygon fill="black" stroke="black" points="777.85,-845 780.45,-855.27 784.82,-845.62 777.85,-845"/>
</g>
<!-- bk -->
<g id="node28" class="node">
<title>bk</title>
<polygon fill="none" stroke="black" points="774.82,-595 815.08,-631.75 734.56,-631.75 774.82,-595"/>
<text text-anchor="middle" x="774.82" y="-614.45" font-family="Times,serif" font-size="14.00">bk</text>
</g>
<!-- gb&#45;&gt;bk -->
<g id="edge23" class="edge">
<title>gb&#45;&gt;bk</title>
<path fill="none" stroke="black" d="M789.31,-683.83C786.52,-671.62 782.92,-655.9 780.01,-643.17"/>
<polygon fill="black" stroke="black" points="783.45,-642.54 777.81,-633.57 776.63,-644.1 783.45,-642.54"/>
</g>
<!-- zv -->
<g id="node11" class="node">
<title>zv</title>
<polygon fill="none" stroke="black" points="2099.82,-765 2139.06,-801.75 2060.58,-801.75 2099.82,-765"/>
<text text-anchor="middle" x="2099.82" y="-784.45" font-family="Times,serif" font-size="14.00">zv</text>
</g>
<!-- zv&#45;&gt;ms -->
<g id="edge9" class="edge">
<title>zv&#45;&gt;ms</title>
<path fill="none" stroke="black" d="M2095.96,-802.16C2088.67,-823.06 2071.36,-867.63 2046.82,-899 2033.81,-915.63 2015.48,-930.84 2000.7,-941.73"/>
<polygon fill="black" stroke="black" points="1998.93,-938.69 1992.83,-947.35 2003,-944.39 1998.93,-938.69"/>
</g>
<!-- mz -->
<g id="node12" class="node">
<title>mz</title>
<polygon fill="none" stroke="black" points="2067.82,-680 2113.2,-716.75 2022.44,-716.75 2067.82,-680"/>
<text text-anchor="middle" x="2067.82" y="-699.45" font-family="Times,serif" font-size="14.00">mz</text>
</g>
<!-- zv&#45;&gt;mz -->
<g id="edge8" class="edge">
<title>zv&#45;&gt;mz</title>
<path fill="none" stroke="black" d="M2093.03,-770.9C2088.16,-758.26 2081.55,-741.13 2076.33,-727.58"/>
<polygon fill="black" stroke="black" points="2079.74,-726.69 2072.87,-718.62 2073.21,-729.21 2079.74,-726.69"/>
</g>
<!-- mz&#45;&gt;ms -->
<g id="edge57" class="edge">
<title>mz&#45;&gt;ms</title>
<path fill="none" stroke="black" d="M2064.62,-717.13C2054.57,-753.48 2023.42,-864.57 2008.82,-899 2003.56,-911.4 1996.44,-924.55 1990.16,-935.33"/>
<polygon fill="black" stroke="black" points="1987.16,-933.52 1985.04,-943.9 1993.17,-937.12 1987.16,-933.52"/>
</g>
<!-- gx -->
<g id="node41" class="node">
<title>gx</title>
<polygon fill="none" stroke="black" points="2046.82,-595 2087.08,-631.75 2006.56,-631.75 2046.82,-595"/>
<text text-anchor="middle" x="2046.82" y="-614.45" font-family="Times,serif" font-size="14.00">gx</text>
</g>
<!-- mz&#45;&gt;gx -->
<g id="edge58" class="edge">
<title>mz&#45;&gt;gx</title>
<path fill="none" stroke="black" d="M2062.84,-683.83C2059.75,-671.62 2055.77,-655.9 2052.55,-643.17"/>
<polygon fill="black" stroke="black" points="2055.97,-642.4 2050.12,-633.56 2049.18,-644.12 2055.97,-642.4"/>
</g>
<!-- ml -->
<g id="node13" class="node">
<title>ml</title>
<polygon fill="none" stroke="black" points="681.82,-340 724.13,-376.75 639.51,-376.75 681.82,-340"/>
<text text-anchor="middle" x="681.82" y="-359.45" font-family="Times,serif" font-size="14.00">ml</text>
</g>
<!-- mf -->
<g id="node14" class="node">
<title>mf</title>
<polygon fill="none" stroke="black" points="644.82,-255 688.15,-291.75 601.48,-291.75 644.82,-255"/>
<text text-anchor="middle" x="644.82" y="-274.45" font-family="Times,serif" font-size="14.00">mf</text>
</g>
<!-- ml&#45;&gt;mf -->
<g id="edge10" class="edge">
<title>ml&#45;&gt;mf</title>
<path fill="none" stroke="black" d="M674.15,-346.3C668.46,-333.54 660.66,-316.05 654.54,-302.3"/>
<polygon fill="black" stroke="black" points="657.75,-300.92 650.48,-293.21 651.36,-303.77 657.75,-300.92"/>
</g>
<!-- ml&#45;&gt;ks -->
<g id="edge11" class="edge">
<title>ml&#45;&gt;ks</title>
<path fill="none" stroke="black" d="M678.02,-377.17C669.54,-404.29 649.82,-473.82 649.82,-533.5 649.82,-705.5 649.82,-705.5 649.82,-705.5 649.82,-758.23 664.79,-772.9 697.82,-814 712.62,-832.42 734.43,-848 751.69,-858.59"/>
<polygon fill="black" stroke="black" points="749.54,-861.39 759.93,-863.47 753.1,-855.37 749.54,-861.39"/>
</g>
<!-- mf&#45;&gt;ks -->
<g id="edge14" class="edge">
<title>mf&#45;&gt;ks</title>
<path fill="none" stroke="black" d="M640.9,-292.16C632.16,-319.26 611.82,-388.75 611.82,-448.5 611.82,-705.5 611.82,-705.5 611.82,-705.5 611.82,-758.05 622.63,-775.9 658.82,-814 682.22,-838.64 718,-854.54 744.41,-863.64"/>
<polygon fill="black" stroke="black" points="743.06,-866.88 753.65,-866.67 745.23,-860.23 743.06,-866.88"/>
</g>
<!-- km -->
<g id="node19" class="node">
<title>km</title>
<polygon fill="none" stroke="black" points="626.82,-170 673.22,-206.75 580.41,-206.75 626.82,-170"/>
<text text-anchor="middle" x="626.82" y="-189.45" font-family="Times,serif" font-size="14.00">km</text>
</g>
<!-- mf&#45;&gt;km -->
<g id="edge15" class="edge">
<title>mf&#45;&gt;km</title>
<path fill="none" stroke="black" d="M640.46,-258.41C637.81,-246.19 634.42,-230.57 631.69,-217.95"/>
<polygon fill="black" stroke="black" points="635.17,-217.49 629.63,-208.45 628.33,-218.97 635.17,-217.49"/>
</g>
<!-- ks&#45;&gt;jn -->
<g id="edge28" class="edge">
<title>ks&#45;&gt;jn</title>
<path fill="none" stroke="black" d="M785.87,-889.35C794.84,-915.3 808.21,-971.99 814.57,-1008.91"/>
<polygon fill="black" stroke="black" points="811.1,-1009.33 816.14,-1018.65 818.01,-1008.22 811.1,-1009.33"/>
</g>
<!-- ks&#45;&gt;cs -->
<g id="edge29" class="edge">
<title>ks&#45;&gt;cs</title>
<path fill="none" stroke="black" d="M795.27,-863.82C818.66,-850.05 861.9,-824.59 890.76,-807.6"/>
<polygon fill="black" stroke="black" points="892.17,-810.84 899.01,-802.75 888.62,-804.8 892.17,-810.84"/>
</g>
<!-- cm -->
<g id="node31" class="node">
<title>cm</title>
<polygon fill="none" stroke="black" points="974.77,-783.94 1002.82,-771.5 1030.86,-783.94 1030.84,-804.06 974.8,-804.06 974.77,-783.94"/>
<text text-anchor="middle" x="1002.82" y="-784.45" font-family="Times,serif" font-size="14.00">cm</text>
</g>
<!-- ks&#45;&gt;cm -->
<g id="edge30" class="edge">
<title>ks&#45;&gt;cm</title>
<path fill="none" stroke="black" d="M804.09,-867.67C840.77,-858.72 910.41,-839.88 965.82,-814 968.26,-812.86 970.74,-811.58 973.19,-810.23"/>
<polygon fill="black" stroke="black" points="974.89,-813.3 981.7,-805.18 971.31,-807.28 974.89,-813.3"/>
</g>
<!-- pn -->
<g id="node16" class="node">
<title>pn</title>
<polygon fill="none" stroke="black" points="1426.82,-680 1467.08,-716.75 1386.56,-716.75 1426.82,-680"/>
<text text-anchor="middle" x="1426.82" y="-699.45" font-family="Times,serif" font-size="14.00">pn</text>
</g>
<!-- pn&#45;&gt;dn -->
<g id="edge12" class="edge">
<title>pn&#45;&gt;dn</title>
<path fill="none" stroke="black" d="M1424.56,-717.15C1418.43,-747.74 1400.08,-832.53 1372.82,-899 1367.71,-911.46 1360.6,-924.62 1354.3,-935.39"/>
<polygon fill="black" stroke="black" points="1351.3,-933.58 1349.14,-943.95 1357.3,-937.19 1351.3,-933.58"/>
</g>
<!-- jk -->
<g id="node18" class="node">
<title>jk</title>
<polygon fill="none" stroke="black" points="1405.82,-595 1441.99,-631.75 1369.65,-631.75 1405.82,-595"/>
<text text-anchor="middle" x="1405.82" y="-614.45" font-family="Times,serif" font-size="14.00">jk</text>
</g>
<!-- pn&#45;&gt;jk -->
<g id="edge13" class="edge">
<title>pn&#45;&gt;jk</title>
<path fill="none" stroke="black" d="M1421.95,-684.25C1418.83,-671.93 1414.77,-655.9 1411.51,-642.99"/>
<polygon fill="black" stroke="black" points="1415,-642.52 1409.15,-633.68 1408.21,-644.24 1415,-642.52"/>
</g>
<!-- dn&#45;&gt;hd -->
<g id="edge107" class="edge">
<title>dn&#45;&gt;hd</title>
<path fill="none" stroke="black" d="M1345,-974.35C1346.45,-985 1346.89,-1000.12 1346.33,-1013.51"/>
<polygon fill="black" stroke="black" points="1342.86,-1012.94 1345.68,-1023.16 1349.85,-1013.41 1342.86,-1012.94"/>
</g>
<!-- dn&#45;&gt;jk -->
<g id="edge103" class="edge">
<title>dn&#45;&gt;jk</title>
<path fill="none" stroke="black" d="M1340.35,-941.49C1342.1,-897.4 1349.36,-776.16 1377.82,-680 1381.71,-666.86 1388.1,-652.97 1393.8,-641.91"/>
<polygon fill="black" stroke="black" points="1396.79,-643.74 1398.43,-633.27 1390.62,-640.43 1396.79,-643.74"/>
</g>
<!-- dn&#45;&gt;mm -->
<g id="edge109" class="edge">
<title>dn&#45;&gt;mm</title>
<path fill="none" stroke="black" d="M1365.79,-953.08C1410.77,-943.5 1505.91,-922.36 1584.82,-899 1593.04,-896.57 1601.73,-893.72 1610.04,-890.87"/>
<polygon fill="black" stroke="black" points="1610.96,-894.26 1619.24,-887.65 1608.64,-887.65 1610.96,-894.26"/>
</g>
<!-- qf -->
<g id="node39" class="node">
<title>qf</title>
<polygon fill="none" stroke="black" points="1309.82,-340 1347.01,-376.75 1272.63,-376.75 1309.82,-340"/>
<text text-anchor="middle" x="1309.82" y="-359.45" font-family="Times,serif" font-size="14.00">qf</text>
</g>
<!-- dn&#45;&gt;qf -->
<g id="edge104" class="edge">
<title>dn&#45;&gt;qf</title>
<path fill="none" stroke="black" d="M1331.89,-945.09C1316.23,-917.28 1282.82,-850.87 1282.82,-790.5 1282.82,-790.5 1282.82,-790.5 1282.82,-533.5 1282.82,-480.85 1295.9,-420.08 1303.86,-388.02"/>
<polygon fill="black" stroke="black" points="1307.16,-389.23 1306.24,-378.68 1300.38,-387.5 1307.16,-389.23"/>
</g>
<!-- hf -->
<g id="node43" class="node">
<title>hf</title>
<polygon fill="none" stroke="black" points="1347.82,-425 1385.01,-461.75 1310.63,-461.75 1347.82,-425"/>
<text text-anchor="middle" x="1347.82" y="-444.45" font-family="Times,serif" font-size="14.00">hf</text>
</g>
<!-- dn&#45;&gt;hf -->
<g id="edge106" class="edge">
<title>dn&#45;&gt;hf</title>
<path fill="none" stroke="black" d="M1336.85,-942.82C1331.51,-913.18 1320.82,-846.86 1320.82,-790.5 1320.82,-790.5 1320.82,-790.5 1320.82,-618.5 1320.82,-565.85 1333.9,-505.08 1341.86,-473.02"/>
<polygon fill="black" stroke="black" points="1345.16,-474.23 1344.24,-463.68 1338.38,-472.5 1345.16,-474.23"/>
</g>
<!-- nr -->
<g id="node54" class="node">
<title>nr</title>
<polygon fill="none" stroke="black" points="1405.82,-510 1443.01,-546.75 1368.63,-546.75 1405.82,-510"/>
<text text-anchor="middle" x="1405.82" y="-529.45" font-family="Times,serif" font-size="14.00">nr</text>
</g>
<!-- dn&#45;&gt;nr -->
<g id="edge108" class="edge">
<title>dn&#45;&gt;nr</title>
<path fill="none" stroke="black" d="M1361.96,-951.21C1412.65,-932.96 1532.82,-880.23 1532.82,-790.5 1532.82,-790.5 1532.82,-790.5 1532.82,-703.5 1532.82,-637.6 1469.87,-581.23 1432.61,-553.62"/>
<polygon fill="black" stroke="black" points="1435.13,-551.13 1424.97,-548.12 1431.04,-556.81 1435.13,-551.13"/>
</g>
<!-- gc -->
<g id="node59" class="node">
<title>gc</title>
<polygon fill="none" stroke="black" points="1086.82,-868.94 1113.82,-856.5 1140.82,-868.94 1140.79,-889.06 1086.84,-889.06 1086.82,-868.94"/>
<text text-anchor="middle" x="1113.82" y="-869.45" font-family="Times,serif" font-size="14.00">gc</text>
</g>
<!-- dn&#45;&gt;gc -->
<g id="edge105" class="edge">
<title>dn&#45;&gt;gc</title>
<path fill="none" stroke="black" d="M1315.27,-952.37C1279.26,-942.98 1210.37,-923.53 1154.82,-899 1152.03,-897.77 1149.19,-896.4 1146.36,-894.96"/>
<polygon fill="black" stroke="black" points="1148.15,-891.95 1137.69,-890.27 1144.82,-898.1 1148.15,-891.95"/>
</g>
<!-- jk&#45;&gt;nr -->
<g id="edge100" class="edge">
<title>jk&#45;&gt;nr</title>
<path fill="none" stroke="black" d="M1405.82,-594.49C1405.82,-583.22 1405.82,-569.84 1405.82,-558.68"/>
<polygon fill="black" stroke="black" points="1409.32,-558.76 1405.82,-548.76 1402.32,-558.76 1409.32,-558.76"/>
</g>
<!-- km&#45;&gt;ks -->
<g id="edge101" class="edge">
<title>km&#45;&gt;ks</title>
<path fill="none" stroke="black" d="M618.49,-207.21C610.65,-218.8 599.2,-237.32 592.82,-255 576.2,-301.05 573.82,-314.54 573.82,-363.5 573.82,-705.5 573.82,-705.5 573.82,-705.5 573.82,-757.54 580.45,-777.78 617.82,-814 651.51,-846.66 704.67,-861.65 740.59,-868.35"/>
<polygon fill="black" stroke="black" points="739.67,-871.75 750.12,-870 740.86,-864.85 739.67,-871.75"/>
</g>
<!-- qx -->
<g id="node25" class="node">
<title>qx</title>
<polygon fill="none" stroke="black" points="626.82,-85 667.08,-121.75 586.56,-121.75 626.82,-85"/>
<text text-anchor="middle" x="626.82" y="-104.45" font-family="Times,serif" font-size="14.00">qx</text>
</g>
<!-- km&#45;&gt;qx -->
<g id="edge102" class="edge">
<title>km&#45;&gt;qx</title>
<path fill="none" stroke="black" d="M626.82,-169.49C626.82,-158.22 626.82,-144.84 626.82,-133.68"/>
<polygon fill="black" stroke="black" points="630.32,-133.76 626.82,-123.76 623.32,-133.76 630.32,-133.76"/>
</g>
<!-- pz -->
<g id="node20" class="node">
<title>pz</title>
<polygon fill="none" stroke="black" points="372.82,-340 412.06,-376.75 333.58,-376.75 372.82,-340"/>
<text text-anchor="middle" x="372.82" y="-359.45" font-family="Times,serif" font-size="14.00">pz</text>
</g>
<!-- td -->
<g id="node21" class="node">
<title>td</title>
<polygon fill="none" stroke="black" points="372.82,-255 408.99,-291.75 336.65,-291.75 372.82,-255"/>
<text text-anchor="middle" x="372.82" y="-274.45" font-family="Times,serif" font-size="14.00">td</text>
</g>
<!-- pz&#45;&gt;td -->
<g id="edge16" class="edge">
<title>pz&#45;&gt;td</title>
<path fill="none" stroke="black" d="M372.82,-339.49C372.82,-328.22 372.82,-314.84 372.82,-303.68"/>
<polygon fill="black" stroke="black" points="376.32,-303.76 372.82,-293.76 369.32,-303.76 376.32,-303.76"/>
</g>
<!-- pz&#45;&gt;tc -->
<g id="edge17" class="edge">
<title>pz&#45;&gt;tc</title>
<path fill="none" stroke="black" d="M378.63,-376.98C391.61,-403.69 421.82,-472.43 421.82,-533.5 421.82,-790.5 421.82,-790.5 421.82,-790.5 421.82,-842.05 407.72,-855.03 380.82,-899 371.74,-913.83 358.7,-928.33 347.7,-939.3"/>
<polygon fill="black" stroke="black" points="345.29,-936.77 340.53,-946.23 350.15,-941.8 345.29,-936.77"/>
</g>
<!-- td&#45;&gt;tc -->
<g id="edge90" class="edge">
<title>td&#45;&gt;tc</title>
<path fill="none" stroke="black" d="M383.84,-292.06C407.25,-317.88 459.82,-383.14 459.82,-448.5 459.82,-790.5 459.82,-790.5 459.82,-790.5 459.82,-843.6 443.63,-858.06 409.82,-899 394.53,-917.51 372.19,-933.09 354.54,-943.66"/>
<polygon fill="black" stroke="black" points="353,-940.5 346.08,-948.53 356.5,-946.57 353,-940.5"/>
</g>
<!-- bj -->
<g id="node45" class="node">
<title>bj</title>
<polygon fill="none" stroke="black" points="225.82,-170 261.99,-206.75 189.65,-206.75 225.82,-170"/>
<text text-anchor="middle" x="225.82" y="-189.45" font-family="Times,serif" font-size="14.00">bj</text>
</g>
<!-- td&#45;&gt;bj -->
<g id="edge89" class="edge">
<title>td&#45;&gt;bj</title>
<path fill="none" stroke="black" d="M357.64,-269.93C333.78,-256.46 287.04,-230.07 256.12,-212.61"/>
<polygon fill="black" stroke="black" points="258.04,-209.67 247.61,-207.81 254.6,-215.77 258.04,-209.67"/>
</g>
<!-- tc&#45;&gt;mn -->
<g id="edge67" class="edge">
<title>tc&#45;&gt;mn</title>
<path fill="none" stroke="black" d="M332.02,-974.46C333.43,-984.92 333.88,-999.62 333.36,-1012.77"/>
<polygon fill="black" stroke="black" points="329.87,-1012.53 332.72,-1022.74 336.85,-1012.99 329.87,-1012.53"/>
</g>
<!-- xf -->
<g id="node23" class="node">
<title>xf</title>
<polygon fill="none" stroke="black" points="1048.82,-783.94 1075.82,-771.5 1102.82,-783.94 1102.79,-804.06 1048.84,-804.06 1048.82,-783.94"/>
<text text-anchor="middle" x="1075.82" y="-784.45" font-family="Times,serif" font-size="14.00">xf</text>
</g>
<!-- tc&#45;&gt;xf -->
<g id="edge68" class="edge">
<title>tc&#45;&gt;xf</title>
<path fill="none" stroke="black" d="M354.21,-957.46C429.05,-954.12 642.85,-941.31 814.82,-899 918.62,-873.46 944.5,-862.39 1039.82,-814 1042.03,-812.87 1044.28,-811.64 1046.52,-810.35"/>
<polygon fill="black" stroke="black" points="1048.12,-813.48 1054.81,-805.26 1044.45,-807.52 1048.12,-813.48"/>
</g>
<!-- jl -->
<g id="node32" class="node">
<title>jl</title>
<polygon fill="none" stroke="black" points="323.82,-595 355.89,-631.75 291.74,-631.75 323.82,-595"/>
<text text-anchor="middle" x="323.82" y="-614.45" font-family="Times,serif" font-size="14.00">jl</text>
</g>
<!-- tc&#45;&gt;jl -->
<g id="edge69" class="edge">
<title>tc&#45;&gt;jl</title>
<path fill="none" stroke="black" d="M327.12,-941.22C327.82,-897.49 329.31,-778.85 326.82,-680 326.51,-667.83 325.85,-654.27 325.23,-643.18"/>
<polygon fill="black" stroke="black" points="328.74,-643.19 324.65,-633.41 321.75,-643.6 328.74,-643.19"/>
</g>
<!-- tc&#45;&gt;xs -->
<g id="edge70" class="edge">
<title>tc&#45;&gt;xs</title>
<path fill="none" stroke="black" d="M301.84,-952.47C262.86,-942.79 185.44,-922.48 121.82,-899 116.01,-896.86 109.94,-894.36 104.08,-891.81"/>
<polygon fill="black" stroke="black" points="105.8,-888.74 95.24,-887.84 102.93,-895.13 105.8,-888.74"/>
</g>
<!-- zk -->
<g id="node53" class="node">
<title>zk</title>
<polygon fill="none" stroke="black" points="240.82,-765 280.06,-801.75 201.58,-801.75 240.82,-765"/>
<text text-anchor="middle" x="240.82" y="-784.45" font-family="Times,serif" font-size="14.00">zk</text>
</g>
<!-- tc&#45;&gt;zk -->
<g id="edge71" class="edge">
<title>tc&#45;&gt;zk</title>
<path fill="none" stroke="black" d="M319.01,-944.9C312.19,-932.91 302.11,-914.92 293.82,-899 278.31,-869.24 261.47,-834.27 251.03,-812.24"/>
<polygon fill="black" stroke="black" points="254.27,-810.92 246.84,-803.37 247.94,-813.91 254.27,-810.92"/>
</g>
<!-- zr -->
<g id="node24" class="node">
<title>zr</title>
<polygon fill="none" stroke="black" points="1067.82,-698.94 1094.82,-686.5 1121.82,-698.94 1121.79,-719.06 1067.84,-719.06 1067.82,-698.94"/>
<text text-anchor="middle" x="1094.82" y="-699.45" font-family="Times,serif" font-size="14.00">zr</text>
</g>
<!-- xf&#45;&gt;zr -->
<g id="edge18" class="edge">
<title>xf&#45;&gt;zr</title>
<path fill="none" stroke="black" d="M1079.39,-772.89C1082.12,-760.98 1085.93,-744.32 1089.08,-730.55"/>
<polygon fill="black" stroke="black" points="1092.48,-731.39 1091.3,-720.86 1085.66,-729.83 1092.48,-731.39"/>
</g>
<!-- rx -->
<g id="node55" class="node">
<title>rx</title>
<ellipse fill="none" stroke="black" cx="1094.82" cy="-619.5" rx="18.6" ry="18.6"/>
<text text-anchor="middle" x="1094.82" y="-614.45" font-family="Times,serif" font-size="14.00">rx</text>
</g>
<!-- zr&#45;&gt;rx -->
<g id="edge88" class="edge">
<title>zr&#45;&gt;rx</title>
<path fill="none" stroke="black" d="M1094.82,-686.3C1094.82,-675.83 1094.82,-662.18 1094.82,-650.02"/>
<polygon fill="black" stroke="black" points="1098.32,-650.05 1094.82,-640.05 1091.32,-650.05 1098.32,-650.05"/>
</g>
<!-- qx&#45;&gt;ks -->
<g id="edge19" class="edge">
<title>qx&#45;&gt;ks</title>
<path fill="none" stroke="black" d="M613.3,-121.99C600.96,-133.14 582.97,-151.1 571.82,-170 545.99,-213.75 535.82,-227.69 535.82,-278.5 535.82,-705.5 535.82,-705.5 535.82,-705.5 535.82,-757.21 539.79,-778.96 577.82,-814 622.9,-855.54 695.68,-868.18 740.19,-871.96"/>
<polygon fill="black" stroke="black" points="739.66,-875.43 749.89,-872.67 740.17,-868.45 739.66,-875.43"/>
</g>
<!-- rh -->
<g id="node26" class="node">
<title>rh</title>
<polygon fill="none" stroke="black" points="763.82,0 801.01,-36.75 726.63,-36.75 763.82,0"/>
<text text-anchor="middle" x="763.82" y="-19.45" font-family="Times,serif" font-size="14.00">rh</text>
</g>
<!-- qx&#45;&gt;rh -->
<g id="edge20" class="edge">
<title>qx&#45;&gt;rh</title>
<path fill="none" stroke="black" d="M642.53,-98.98C665.07,-85.33 706.94,-59.96 735.1,-42.9"/>
<polygon fill="black" stroke="black" points="736.75,-45.99 743.49,-37.81 733.13,-40 736.75,-45.99"/>
</g>
<!-- rh&#45;&gt;ks -->
<g id="edge25" class="edge">
<title>rh&#45;&gt;ks</title>
<path fill="none" stroke="black" d="M783.3,-37.11C820.91,-61.15 899.82,-120.32 899.82,-193.5 899.82,-620.5 899.82,-620.5 899.82,-620.5 899.82,-710.94 883.6,-736.6 836.82,-814 827.42,-829.54 813.24,-844.19 801.25,-855.06"/>
<polygon fill="black" stroke="black" points="799,-852.38 793.77,-861.6 803.6,-857.66 799,-852.38"/>
</g>
<!-- nv -->
<g id="node27" class="node">
<title>nv</title>
<polygon fill="none" stroke="black" points="1464.82,-765 1505.08,-801.75 1424.56,-801.75 1464.82,-765"/>
<text text-anchor="middle" x="1464.82" y="-784.45" font-family="Times,serif" font-size="14.00">nv</text>
</g>
<!-- nv&#45;&gt;pn -->
<g id="edge21" class="edge">
<title>nv&#45;&gt;pn</title>
<path fill="none" stroke="black" d="M1457.13,-771.7C1451.24,-758.85 1443.08,-741.01 1436.7,-727.1"/>
<polygon fill="black" stroke="black" points="1440.03,-725.95 1432.69,-718.32 1433.67,-728.87 1440.03,-725.95"/>
</g>
<!-- nv&#45;&gt;dn -->
<g id="edge22" class="edge">
<title>nv&#45;&gt;dn</title>
<path fill="none" stroke="black" d="M1460.84,-802.16C1453.32,-823.05 1435.57,-867.6 1410.82,-899 1397.67,-915.68 1379.19,-930.99 1364.38,-941.9"/>
<polygon fill="black" stroke="black" points="1362.61,-938.86 1356.5,-947.52 1366.67,-944.56 1362.61,-938.86"/>
</g>
<!-- bk&#45;&gt;ks -->
<g id="edge74" class="edge">
<title>bk&#45;&gt;ks</title>
<path fill="none" stroke="black" d="M766.85,-632.16C759.48,-643.72 749.05,-662.22 744.82,-680 730.51,-740.14 753.51,-812.12 768.16,-849.02"/>
<polygon fill="black" stroke="black" points="764.77,-849.98 771.81,-857.9 771.24,-847.32 764.77,-849.98"/>
</g>
<!-- zz -->
<g id="node51" class="node">
<title>zz</title>
<polygon fill="none" stroke="black" points="774.82,-510 813.03,-546.75 736.6,-546.75 774.82,-510"/>
<text text-anchor="middle" x="774.82" y="-529.45" font-family="Times,serif" font-size="14.00">zz</text>
</g>
<!-- bk&#45;&gt;zz -->
<g id="edge73" class="edge">
<title>bk&#45;&gt;zz</title>
<path fill="none" stroke="black" d="M774.82,-594.49C774.82,-583.22 774.82,-569.84 774.82,-558.68"/>
<polygon fill="black" stroke="black" points="778.32,-558.76 774.82,-548.76 771.32,-558.76 778.32,-558.76"/>
</g>
<!-- zf -->
<g id="node29" class="node">
<title>zf</title>
<polygon fill="none" stroke="black" points="1202.82,0 1238.99,-36.75 1166.65,-36.75 1202.82,0"/>
<text text-anchor="middle" x="1202.82" y="-19.45" font-family="Times,serif" font-size="14.00">zf</text>
</g>
<!-- zf&#45;&gt;dn -->
<g id="edge26" class="edge">
<title>zf&#45;&gt;dn</title>
<path fill="none" stroke="black" d="M1198.78,-37.15C1189.78,-64.23 1168.82,-133.69 1168.82,-193.5 1168.82,-790.5 1168.82,-790.5 1168.82,-790.5 1168.82,-843.05 1179.38,-861.13 1215.82,-899 1240.12,-924.26 1277.31,-940.11 1304.63,-949.04"/>
<polygon fill="black" stroke="black" points="1303.27,-952.28 1313.86,-951.9 1305.34,-945.6 1303.27,-952.28"/>
</g>
<!-- fl -->
<g id="node30" class="node">
<title>fl</title>
<polygon fill="none" stroke="black" points="2070.82,0 2103.91,-36.75 2037.72,-36.75 2070.82,0"/>
<text text-anchor="middle" x="2070.82" y="-19.45" font-family="Times,serif" font-size="14.00">fl</text>
</g>
<!-- fl&#45;&gt;ms -->
<g id="edge27" class="edge">
<title>fl&#45;&gt;ms</title>
<path fill="none" stroke="black" d="M2100.95,-37.22C2152.19,-59.36 2250.82,-112.5 2250.82,-193.5 2250.82,-790.5 2250.82,-790.5 2250.82,-790.5 2250.82,-839.46 2265.47,-863.44 2231.82,-899 2202.44,-930.04 2078.96,-947.51 2014.84,-954.65"/>
<polygon fill="black" stroke="black" points="2014.67,-951.15 2005.1,-955.71 2015.42,-958.11 2014.67,-951.15"/>
</g>
<!-- cm&#45;&gt;zr -->
<g id="edge46" class="edge">
<title>cm&#45;&gt;zr</title>
<path fill="none" stroke="black" d="M1015.61,-776.96C1029.95,-764.02 1053.51,-742.76 1071.22,-726.79"/>
<polygon fill="black" stroke="black" points="1073.17,-729.74 1078.25,-720.45 1068.48,-724.55 1073.17,-729.74"/>
</g>
<!-- ps -->
<g id="node33" class="node">
<title>ps</title>
<polygon fill="none" stroke="black" points="338.82,-510 377.03,-546.75 300.6,-546.75 338.82,-510"/>
<text text-anchor="middle" x="338.82" y="-529.45" font-family="Times,serif" font-size="14.00">ps</text>
</g>
<!-- jl&#45;&gt;ps -->
<g id="edge31" class="edge">
<title>jl&#45;&gt;ps</title>
<path fill="none" stroke="black" d="M327.45,-598.41C329.66,-586.19 332.48,-570.57 334.76,-557.95"/>
<polygon fill="black" stroke="black" points="338.14,-558.93 336.47,-548.46 331.25,-557.68 338.14,-558.93"/>
</g>
<!-- ps&#45;&gt;tc -->
<g id="edge65" class="edge">
<title>ps&#45;&gt;tc</title>
<path fill="none" stroke="black" d="M344.85,-547.04C350.76,-558.81 359.61,-577.73 364.82,-595 378.94,-641.87 383.82,-654.54 383.82,-703.5 383.82,-790.5 383.82,-790.5 383.82,-790.5 383.82,-844.5 357.08,-903.33 340.23,-935.05"/>
<polygon fill="black" stroke="black" points="337.2,-933.31 335.47,-943.76 343.34,-936.67 337.2,-933.31"/>
</g>
<!-- vz -->
<g id="node44" class="node">
<title>vz</title>
<polygon fill="none" stroke="black" points="338.82,-425 378.06,-461.75 299.58,-461.75 338.82,-425"/>
<text text-anchor="middle" x="338.82" y="-444.45" font-family="Times,serif" font-size="14.00">vz</text>
</g>
<!-- ps&#45;&gt;vz -->
<g id="edge66" class="edge">
<title>ps&#45;&gt;vz</title>
<path fill="none" stroke="black" d="M338.82,-509.49C338.82,-498.22 338.82,-484.84 338.82,-473.68"/>
<polygon fill="black" stroke="black" points="342.32,-473.76 338.82,-463.76 335.32,-473.76 342.32,-473.76"/>
</g>
<!-- dz -->
<g id="node34" class="node">
<title>dz</title>
<polygon fill="none" stroke="black" points="1291.82,-170 1331.06,-206.75 1252.58,-206.75 1291.82,-170"/>
<text text-anchor="middle" x="1291.82" y="-189.45" font-family="Times,serif" font-size="14.00">dz</text>
</g>
<!-- dz&#45;&gt;dn -->
<g id="edge33" class="edge">
<title>dz&#45;&gt;dn</title>
<path fill="none" stroke="black" d="M1321.64,-197.39C1400.55,-204.16 1608.82,-234.26 1608.82,-363.5 1608.82,-705.5 1608.82,-705.5 1608.82,-705.5 1608.82,-803.77 1576.42,-835.03 1501.82,-899 1466.21,-929.53 1413.57,-944.97 1378.04,-952.36"/>
<polygon fill="black" stroke="black" points="1377.78,-948.85 1368.64,-954.2 1379.12,-955.72 1377.78,-948.85"/>
</g>
<!-- zb -->
<g id="node35" class="node">
<title>zb</title>
<polygon fill="none" stroke="black" points="1235.82,-85 1275.06,-121.75 1196.58,-121.75 1235.82,-85"/>
<text text-anchor="middle" x="1235.82" y="-104.45" font-family="Times,serif" font-size="14.00">zb</text>
</g>
<!-- dz&#45;&gt;zb -->
<g id="edge32" class="edge">
<title>dz&#45;&gt;zb</title>
<path fill="none" stroke="black" d="M1282.06,-179.04C1273.2,-165.91 1260.02,-146.38 1250,-131.52"/>
<polygon fill="black" stroke="black" points="1253,-129.7 1244.5,-123.37 1247.19,-133.62 1253,-129.7"/>
</g>
<!-- zb&#45;&gt;dn -->
<g id="edge63" class="edge">
<title>zb&#45;&gt;dn</title>
<path fill="none" stroke="black" d="M1232.38,-122.19C1224.7,-149.37 1206.82,-219.01 1206.82,-278.5 1206.82,-790.5 1206.82,-790.5 1206.82,-790.5 1206.82,-843.23 1221.32,-858.27 1254.82,-899 1270.41,-917.96 1293.48,-933.59 1311.66,-944.07"/>
<polygon fill="black" stroke="black" points="1309.93,-947.11 1320.37,-948.89 1313.32,-940.99 1309.93,-947.11"/>
</g>
<!-- zb&#45;&gt;zf -->
<g id="edge64" class="edge">
<title>zb&#45;&gt;zf</title>
<path fill="none" stroke="black" d="M1228.82,-90.9C1223.79,-78.26 1216.98,-61.13 1211.59,-47.58"/>
<polygon fill="black" stroke="black" points="1214.98,-46.61 1208.03,-38.61 1208.47,-49.2 1214.98,-46.61"/>
</g>
<!-- mm&#45;&gt;nv -->
<g id="edge87" class="edge">
<title>mm&#45;&gt;nv</title>
<path fill="none" stroke="black" d="M1630.73,-864.14C1599.39,-850.23 1540.07,-823.9 1501.51,-806.79"/>
<polygon fill="black" stroke="black" points="1503.17,-803.69 1492.61,-802.83 1500.33,-810.09 1503.17,-803.69"/>
</g>
<!-- fm&#45;&gt;zv -->
<g id="edge81" class="edge">
<title>fm&#45;&gt;zv</title>
<path fill="none" stroke="black" d="M2167.32,-860.53C2154.27,-846.99 2133.64,-825.59 2118.62,-810.01"/>
<polygon fill="black" stroke="black" points="2121.45,-807.9 2111.99,-803.13 2116.41,-812.76 2121.45,-807.9"/>
</g>
<!-- sz&#45;&gt;zr -->
<g id="edge40" class="edge">
<title>sz&#45;&gt;zr</title>
<path fill="none" stroke="black" d="M1735.11,-863.06C1728.73,-858.75 1721.06,-853.86 1713.82,-850 1628.6,-804.54 1606.86,-790.9 1513.82,-765 1377.09,-726.94 1208.14,-712.44 1133.44,-707.62"/>
<polygon fill="black" stroke="black" points="1133.99,-704.14 1123.79,-707.02 1133.56,-711.13 1133.99,-704.14"/>
</g>
<!-- kf -->
<g id="node40" class="node">
<title>kf</title>
<polygon fill="none" stroke="black" points="1291.82,-255 1329.01,-291.75 1254.63,-291.75 1291.82,-255"/>
<text text-anchor="middle" x="1291.82" y="-274.45" font-family="Times,serif" font-size="14.00">kf</text>
</g>
<!-- qf&#45;&gt;kf -->
<g id="edge39" class="edge">
<title>qf&#45;&gt;kf</title>
<path fill="none" stroke="black" d="M1305.55,-343.83C1302.9,-331.62 1299.49,-315.9 1296.73,-303.17"/>
<polygon fill="black" stroke="black" points="1300.19,-302.61 1294.65,-293.57 1293.35,-304.09 1300.19,-302.61"/>
</g>
<!-- kf&#45;&gt;dn -->
<g id="edge60" class="edge">
<title>kf&#45;&gt;dn</title>
<path fill="none" stroke="black" d="M1285.28,-291.98C1278.89,-303.7 1269.33,-322.59 1263.82,-340 1249.04,-386.67 1244.82,-399.54 1244.82,-448.5 1244.82,-790.5 1244.82,-790.5 1244.82,-790.5 1244.82,-850.62 1291.49,-909 1319.41,-938.54"/>
<polygon fill="black" stroke="black" points="1316.86,-940.94 1326.34,-945.67 1321.88,-936.06 1316.86,-940.94"/>
</g>
<!-- kf&#45;&gt;dz -->
<g id="edge59" class="edge">
<title>kf&#45;&gt;dz</title>
<path fill="none" stroke="black" d="M1291.82,-254.49C1291.82,-243.22 1291.82,-229.84 1291.82,-218.68"/>
<polygon fill="black" stroke="black" points="1295.32,-218.76 1291.82,-208.76 1288.32,-218.76 1295.32,-218.76"/>
</g>
<!-- gx&#45;&gt;ms -->
<g id="edge41" class="edge">
<title>gx&#45;&gt;ms</title>
<path fill="none" stroke="black" d="M2038.6,-632.2C2030.9,-643.78 2019.71,-662.29 2013.82,-680 1984.66,-767.7 1977.85,-878.06 1976.27,-929.56"/>
<polygon fill="black" stroke="black" points="1972.78,-929.45 1976.02,-939.53 1979.77,-929.63 1972.78,-929.45"/>
</g>
<!-- kb -->
<g id="node42" class="node">
<title>kb</title>
<polygon fill="none" stroke="black" points="2046.82,-510 2087.08,-546.75 2006.56,-546.75 2046.82,-510"/>
<text text-anchor="middle" x="2046.82" y="-529.45" font-family="Times,serif" font-size="14.00">kb</text>
</g>
<!-- gx&#45;&gt;kb -->
<g id="edge42" class="edge">
<title>gx&#45;&gt;kb</title>
<path fill="none" stroke="black" d="M2046.82,-594.49C2046.82,-583.22 2046.82,-569.84 2046.82,-558.68"/>
<polygon fill="black" stroke="black" points="2050.32,-558.76 2046.82,-548.76 2043.32,-558.76 2050.32,-558.76"/>
</g>
<!-- kb&#45;&gt;ms -->
<g id="edge75" class="edge">
<title>kb&#45;&gt;ms</title>
<path fill="none" stroke="black" d="M2058.89,-547.23C2069.91,-558.54 2085.94,-576.61 2095.82,-595 2111.57,-624.33 2173.03,-745.96 2147.82,-814 2139.17,-837.35 2093.84,-882.94 2074.82,-899 2053.16,-917.29 2025.23,-933.52 2004.57,-944.39"/>
<polygon fill="black" stroke="black" points="2003.13,-941.19 1995.84,-948.88 2006.33,-947.42 2003.13,-941.19"/>
</g>
<!-- tl -->
<g id="node47" class="node">
<title>tl</title>
<polygon fill="none" stroke="black" points="1978.82,-425 2010.89,-461.75 1946.74,-461.75 1978.82,-425"/>
<text text-anchor="middle" x="1978.82" y="-444.45" font-family="Times,serif" font-size="14.00">tl</text>
</g>
<!-- kb&#45;&gt;tl -->
<g id="edge76" class="edge">
<title>kb&#45;&gt;tl</title>
<path fill="none" stroke="black" d="M2035.59,-519.79C2024.66,-506.45 2007.91,-486.01 1995.43,-470.78"/>
<polygon fill="black" stroke="black" points="1998.31,-468.77 1989.27,-463.25 1992.9,-473.21 1998.31,-468.77"/>
</g>
<!-- hf&#45;&gt;qf -->
<g id="edge43" class="edge">
<title>hf&#45;&gt;qf</title>
<path fill="none" stroke="black" d="M1340.31,-432.1C1334.44,-419.28 1326.22,-401.33 1319.8,-387.3"/>
<polygon fill="black" stroke="black" points="1323.08,-386.07 1315.74,-378.43 1316.72,-388.98 1323.08,-386.07"/>
</g>
<!-- vz&#45;&gt;pz -->
<g id="edge44" class="edge">
<title>vz&#45;&gt;pz</title>
<path fill="none" stroke="black" d="M345.86,-431.3C351.09,-418.54 358.26,-401.05 363.89,-387.3"/>
<polygon fill="black" stroke="black" points="367.05,-388.81 367.6,-378.23 360.57,-386.16 367.05,-388.81"/>
</g>
<!-- vz&#45;&gt;tc -->
<g id="edge45" class="edge">
<title>vz&#45;&gt;tc</title>
<path fill="none" stroke="black" d="M312.67,-462.21C266.15,-485.04 173.82,-540.21 173.82,-618.5 173.82,-790.5 173.82,-790.5 173.82,-790.5 173.82,-863.91 254.66,-919.36 298.81,-944.18"/>
<polygon fill="black" stroke="black" points="296.88,-947.11 307.34,-948.82 300.23,-940.96 296.88,-947.11"/>
</g>
<!-- bj&#45;&gt;tc -->
<g id="edge47" class="edge">
<title>bj&#45;&gt;tc</title>
<path fill="none" stroke="black" d="M214.42,-206.98C190.2,-232.66 135.82,-297.65 135.82,-363.5 135.82,-790.5 135.82,-790.5 135.82,-790.5 135.82,-844.17 149.98,-861.96 188.82,-899 217.03,-925.9 259.32,-941.67 289.64,-950.14"/>
<polygon fill="black" stroke="black" points="288.6,-953.48 299.16,-952.65 290.38,-946.71 288.6,-953.48"/>
</g>
<!-- xx -->
<g id="node46" class="node">
<title>xx</title>
<polygon fill="none" stroke="black" points="225.82,-85 266.08,-121.75 185.56,-121.75 225.82,-85"/>
<text text-anchor="middle" x="225.82" y="-104.45" font-family="Times,serif" font-size="14.00">xx</text>
</g>
<!-- bj&#45;&gt;xx -->
<g id="edge48" class="edge">
<title>bj&#45;&gt;xx</title>
<path fill="none" stroke="black" d="M225.82,-169.49C225.82,-158.22 225.82,-144.84 225.82,-133.68"/>
<polygon fill="black" stroke="black" points="229.32,-133.76 225.82,-123.76 222.32,-133.76 229.32,-133.76"/>
</g>
<!-- xx&#45;&gt;tc -->
<g id="edge51" class="edge">
<title>xx&#45;&gt;tc</title>
<path fill="none" stroke="black" d="M185.87,-120.91C121.96,-140.26 3.82,-188.24 3.82,-278.5 3.82,-790.5 3.82,-790.5 3.82,-790.5 3.82,-839.46 -11.45,-864.04 22.82,-899 59.28,-936.2 214.63,-951.17 288.06,-956.25"/>
<polygon fill="black" stroke="black" points="287.81,-959.74 298.02,-956.91 288.28,-952.76 287.81,-959.74"/>
</g>
<!-- xg -->
<g id="node49" class="node">
<title>xg</title>
<polygon fill="none" stroke="black" points="316.82,0 357.08,-36.75 276.56,-36.75 316.82,0"/>
<text text-anchor="middle" x="316.82" y="-19.45" font-family="Times,serif" font-size="14.00">xg</text>
</g>
<!-- xx&#45;&gt;xg -->
<g id="edge52" class="edge">
<title>xx&#45;&gt;xg</title>
<path fill="none" stroke="black" d="M238.86,-96.61C253.67,-83.1 278.07,-60.84 295.63,-44.83"/>
<polygon fill="black" stroke="black" points="297.95,-47.45 302.98,-38.12 293.23,-42.28 297.95,-47.45"/>
</g>
<!-- tl&#45;&gt;ms -->
<g id="edge50" class="edge">
<title>tl&#45;&gt;ms</title>
<path fill="none" stroke="black" d="M1976.21,-462.24C1970.38,-489.53 1956.82,-559.37 1956.82,-618.5 1956.82,-790.5 1956.82,-790.5 1956.82,-790.5 1956.82,-840.43 1965.21,-898.18 1970.84,-931.32"/>
<polygon fill="black" stroke="black" points="1967.33,-931.61 1972.5,-940.86 1974.23,-930.41 1967.33,-931.61"/>
</g>
<!-- pp -->
<g id="node48" class="node">
<title>pp</title>
<polygon fill="none" stroke="black" points="1948.82,-340 1989.08,-376.75 1908.56,-376.75 1948.82,-340"/>
<text text-anchor="middle" x="1948.82" y="-359.45" font-family="Times,serif" font-size="14.00">pp</text>
</g>
<!-- tl&#45;&gt;pp -->
<g id="edge49" class="edge">
<title>tl&#45;&gt;pp</title>
<path fill="none" stroke="black" d="M1972.75,-431.7C1968.15,-418.97 1961.78,-401.37 1956.77,-387.51"/>
<polygon fill="black" stroke="black" points="1960.16,-386.58 1953.47,-378.37 1953.58,-388.96 1960.16,-386.58"/>
</g>
<!-- pp&#45;&gt;nz -->
<g id="edge93" class="edge">
<title>pp&#45;&gt;nz</title>
<path fill="none" stroke="black" d="M1940.93,-346.7C1934.88,-333.85 1926.51,-316.01 1919.97,-302.1"/>
<polygon fill="black" stroke="black" points="1923.26,-300.87 1915.84,-293.31 1916.92,-303.85 1923.26,-300.87"/>
</g>
<!-- pp&#45;&gt;ms -->
<g id="edge94" class="edge">
<title>pp&#45;&gt;ms</title>
<path fill="none" stroke="black" d="M1945.26,-377.19C1937.31,-404.34 1918.82,-473.95 1918.82,-533.5 1918.82,-790.5 1918.82,-790.5 1918.82,-790.5 1918.82,-844.23 1945.28,-902.73 1962.15,-934.57"/>
<polygon fill="black" stroke="black" points="1959.07,-936.23 1966.93,-943.33 1965.21,-932.88 1959.07,-936.23"/>
</g>
<!-- xg&#45;&gt;tc -->
<g id="edge77" class="edge">
<title>xg&#45;&gt;tc</title>
<path fill="none" stroke="black" d="M347.11,-37.17C398.64,-59.24 497.82,-112.25 497.82,-193.5 497.82,-790.5 497.82,-790.5 497.82,-790.5 497.82,-844.56 480.96,-860.68 442.82,-899 419.59,-922.34 385.3,-938.37 360.03,-947.85"/>
<polygon fill="black" stroke="black" points="359.12,-944.46 350.89,-951.13 361.48,-951.05 359.12,-944.46"/>
</g>
<!-- xs&#45;&gt;zk -->
<g id="edge86" class="edge">
<title>xs&#45;&gt;zk</title>
<path fill="none" stroke="black" d="M86.53,-865.39C114.21,-851.95 170.16,-824.8 206.53,-807.14"/>
<polygon fill="black" stroke="black" points="207.85,-810.39 215.32,-802.88 204.8,-804.09 207.85,-810.39"/>
</g>
<!-- zz&#45;&gt;ks -->
<g id="edge55" class="edge">
<title>zz&#45;&gt;ks</title>
<path fill="none" stroke="black" d="M787.21,-547.06C798.46,-558.25 814.65,-576.24 823.82,-595 850.22,-649.05 855.27,-670.15 842.82,-729 833.24,-774.26 808.52,-822.59 792.75,-850.31"/>
<polygon fill="black" stroke="black" points="789.76,-848.49 787.76,-858.89 795.81,-852 789.76,-848.49"/>
</g>
<!-- vd -->
<g id="node52" class="node">
<title>vd</title>
<polygon fill="none" stroke="black" points="717.82,-425 758.08,-461.75 677.56,-461.75 717.82,-425"/>
<text text-anchor="middle" x="717.82" y="-444.45" font-family="Times,serif" font-size="14.00">vd</text>
</g>
<!-- zz&#45;&gt;vd -->
<g id="edge56" class="edge">
<title>zz&#45;&gt;vd</title>
<path fill="none" stroke="black" d="M764.89,-519.04C755.87,-505.91 742.46,-486.38 732.25,-471.52"/>
<polygon fill="black" stroke="black" points="735.2,-469.63 726.65,-463.36 729.43,-473.59 735.2,-469.63"/>
</g>
<!-- vd&#45;&gt;ml -->
<g id="edge83" class="edge">
<title>vd&#45;&gt;ml</title>
<path fill="none" stroke="black" d="M710.36,-431.3C704.82,-418.54 697.24,-401.05 691.27,-387.3"/>
<polygon fill="black" stroke="black" points="694.52,-386 687.33,-378.22 688.1,-388.78 694.52,-386"/>
</g>
<!-- vd&#45;&gt;ks -->
<g id="edge82" class="edge">
<title>vd&#45;&gt;ks</title>
<path fill="none" stroke="black" d="M714.26,-462.19C706.31,-489.34 687.82,-558.95 687.82,-618.5 687.82,-705.5 687.82,-705.5 687.82,-705.5 687.82,-765.02 732.53,-823.64 759.27,-853.38"/>
<polygon fill="black" stroke="black" points="756.53,-855.58 765.89,-860.54 761.67,-850.82 756.53,-855.58"/>
</g>
<!-- vl -->
<g id="node56" class="node">
<title>vl</title>
<polygon fill="none" stroke="black" points="281.82,-680 317.99,-716.75 245.65,-716.75 281.82,-680"/>
<text text-anchor="middle" x="281.82" y="-699.45" font-family="Times,serif" font-size="14.00">vl</text>
</g>
<!-- zk&#45;&gt;vl -->
<g id="edge80" class="edge">
<title>zk&#45;&gt;vl</title>
<path fill="none" stroke="black" d="M248.92,-772.1C255.25,-759.28 264.12,-741.33 271.05,-727.3"/>
<polygon fill="black" stroke="black" points="274.15,-728.93 275.44,-718.41 267.87,-725.83 274.15,-728.93"/>
</g>
<!-- nr&#45;&gt;hf -->
<g id="edge72" class="edge">
<title>nr&#45;&gt;hf</title>
<path fill="none" stroke="black" d="M1395.98,-519.42C1386.75,-506.22 1372.84,-486.31 1362.34,-471.28"/>
<polygon fill="black" stroke="black" points="1365.48,-469.66 1356.88,-463.47 1359.74,-473.67 1365.48,-469.66"/>
</g>
<!-- vl&#45;&gt;tc -->
<g id="edge79" class="edge">
<title>vl&#45;&gt;tc</title>
<path fill="none" stroke="black" d="M283.87,-717.02C290.6,-754.87 312.17,-876.14 321.93,-931.04"/>
<polygon fill="black" stroke="black" points="318.47,-931.57 323.67,-940.8 325.36,-930.34 318.47,-931.57"/>
</g>
<!-- vl&#45;&gt;jl -->
<g id="edge78" class="edge">
<title>vl&#45;&gt;jl</title>
<path fill="none" stroke="black" d="M289.72,-687.89C296.27,-674.94 305.65,-656.4 312.92,-642.04"/>
<polygon fill="black" stroke="black" points="315.91,-643.89 317.3,-633.38 309.66,-640.73 315.91,-643.89"/>
</g>
<!-- xk&#45;&gt;cs -->
<g id="edge91" class="edge">
<title>xk&#45;&gt;cs</title>
<path fill="none" stroke="black" d="M862.55,-940.84C874.32,-909.94 898.61,-846.17 911.45,-812.47"/>
<polygon fill="black" stroke="black" points="914.64,-813.92 914.93,-803.32 908.1,-811.42 914.64,-813.92"/>
</g>
<!-- xk&#45;&gt;ks -->
<g id="edge92" class="edge">
<title>xk&#45;&gt;ks</title>
<path fill="none" stroke="black" d="M843.79,-945.53C831.98,-932.8 813.73,-913.13 799.57,-897.87"/>
<polygon fill="black" stroke="black" points="802.19,-895.55 792.82,-890.6 797.06,-900.31 802.19,-895.55"/>
</g>
<!-- cp&#45;&gt;ms -->
<g id="edge98" class="edge">
<title>cp&#45;&gt;ms</title>
<path fill="none" stroke="black" d="M1879.33,-122.19C1867.92,-133.47 1851.26,-151.52 1840.82,-170 1815.82,-214.23 1804.82,-227.69 1804.82,-278.5 1804.82,-790.5 1804.82,-790.5 1804.82,-790.5 1804.82,-842.71 1813.8,-861.21 1849.82,-899 1874.24,-924.63 1911.91,-940.4 1939.71,-949.21"/>
<polygon fill="black" stroke="black" points="1938.54,-952.51 1949.12,-952.02 1940.55,-945.8 1938.54,-952.51"/>
</g>
<!-- cp&#45;&gt;fl -->
<g id="edge97" class="edge">
<title>cp&#45;&gt;fl</title>
<path fill="none" stroke="black" d="M1908.98,-100.54C1938.02,-87.08 1997.39,-59.55 2035.58,-41.84"/>
<polygon fill="black" stroke="black" points="2036.77,-45.14 2044.37,-37.76 2033.83,-38.79 2036.77,-45.14"/>
</g>
<!-- gc&#45;&gt;zr -->
<g id="edge99" class="edge">
<title>gc&#45;&gt;zr</title>
<path fill="none" stroke="black" d="M1114.86,-856.47C1115.86,-835.01 1116.61,-797.05 1111.82,-765 1110.09,-753.42 1106.75,-740.92 1103.49,-730.37"/>
<polygon fill="black" stroke="black" points="1106.82,-729.32 1100.39,-720.9 1100.17,-731.49 1106.82,-729.32"/>
</g>
</g>
</svg>
